<svg xmlns="http://www.w3.org/2000/svg" width="20" height="20" viewBox="0 0 20 20">
    <defs>
        <linearGradient id="prefix__a" x1="100%" x2="0%" y1="50%" y2="50%">
            <stop offset="0%" stop-color="#F8931F"/>
            <stop offset="100%" stop-color="#FF6359"/>
        </linearGradient>
    </defs>
    <g fill="none" fill-rule="evenodd" transform="translate(-2 -2)">
        <path d="M0 0H24V24H0z" opacity=".05"/>
        <rect width="20" height="20" x="2" y="2" fill="url(#prefix__a)" rx="10" transform="matrix(-1 0 0 1 24 0)"/>
        <g>
            <path d="M0 0H12V14H0z" transform="translate(6 5)"/>
            <g fill="#FFF" fill-rule="nonzero">
                <path d="M4.7 0C2.11 0 0 2.044 0 4.56c0 .882.291 1.71 1.15 3.161.101.173.325.232.5.134.179-.1.242-.324.138-.5l-.051-.088C.977 5.97.739 5.285.739 4.56.74 2.45 2.515.73 4.7.73c2.185 0 3.96 1.72 3.96 3.831 0 .768-.558 2.064-1.66 3.811l-.352.547c-.485.737-1.026 1.496-1.587 2.235l-.362.467-.02-.025c-.8-1.027-1.572-2.11-2.222-3.132-.107-.17-.333-.222-.505-.118-.175.104-.231.332-.121.505.686 1.08 1.506 2.225 2.348 3.299.125.16.316.251.521.251.205 0 .396-.092.521-.251.894-1.14 1.74-2.33 2.44-3.445C8.804 6.882 9.4 5.494 9.4 4.56 9.4 2.044 7.29 0 4.7 0z" transform="translate(6 5) translate(1 1)"/>
                <path d="M4.687 2.035c1.462 0 2.65 1.188 2.65 2.65 0 1.461-1.188 2.65-2.65 2.65-1.461 0-2.65-1.189-2.65-2.65 0-1.462 1.189-2.65 2.65-2.65zm0 .706c-1.071 0-1.943.872-1.943 1.944 0 1.071.872 1.943 1.943 1.943 1.072 0 1.944-.872 1.944-1.943 0-1.072-.872-1.944-1.944-1.944z" transform="translate(6 5) translate(1 1)"/>
            </g>
        </g>
    </g>
</svg>
